<?xml version="1.0" encoding="utf-8"?>
<!-- Generator: Adobe Illustrator 23.1.1, SVG Export Plug-In . SVG Version: 6.00 Build 0)  -->
<svg version="1.1" id="Calque_1" xmlns="http://www.w3.org/2000/svg" xmlns:xlink="http://www.w3.org/1999/xlink" x="0px" y="0px"
	 viewBox="0 0 113.39 113.39" style="enable-background:new 0 0 113.39 113.39;" xml:space="preserve">
<style type="text/css">
	.st0{fill:none;stroke:#000000;stroke-width:2.9726;stroke-linecap:round;stroke-linejoin:round;stroke-miterlimit:10;}
	.st1{fill:#FFFFFF;stroke:#000000;stroke-width:1.5305;stroke-miterlimit:10;}
	.st2{fill:none;stroke:#000000;stroke-width:0.2477;stroke-linecap:round;stroke-linejoin:round;stroke-miterlimit:10;}
	.st3{fill:none;stroke:#000000;stroke-width:1.2386;stroke-linecap:round;stroke-linejoin:round;stroke-miterlimit:10;}
</style>
<g>
	<ellipse transform="matrix(0.9498 -0.3129 0.3129 0.9498 -13.5667 31.5775)" cx="91.59" cy="58.05" rx="16.45" ry="11.01"/>
	<ellipse transform="matrix(0.3591 -0.9333 0.9333 0.3591 -15.7094 123.3321)" cx="81.94" cy="73.1" rx="8.61" ry="12.61"/>
</g>
<ellipse transform="matrix(0.3913 -0.9203 0.9203 0.3913 -37.1064 61.1489)" cx="27.67" cy="58.62" rx="11.01" ry="16.45"/>
<ellipse transform="matrix(0.9601 -0.2797 0.2797 0.9601 -19.3791 13.0478)" cx="36.03" cy="74.43" rx="12.61" ry="8.61"/>
<ellipse transform="matrix(0.3913 -0.9203 0.9203 0.3913 -37.1064 61.1489)" cx="27.67" cy="58.62" rx="11.01" ry="16.45"/>
<ellipse transform="matrix(0.9601 -0.2797 0.2797 0.9601 -19.3791 13.0478)" cx="36.03" cy="74.43" rx="12.61" ry="8.61"/>
<g>
	<path class="st0" d="M52.31,39.98c0,0-13.69-21.73-23.6-18.69"/>
	<circle cx="26.23" cy="21.45" r="3.48"/>
</g>
<g>
	<path class="st0" d="M65.42,40.38c0,0,13.57-21.81,23.49-18.82"/>
	<circle cx="91.28" cy="22.28" r="3.48"/>
</g>
<path class="st1" d="M60.18,33.27c27.7,0.78,29.14,21.39,24.51,31.53c-4.62,10.14-20.61,25.03-23.13,25.03
	c-2.55,0-18.16-8.04-25.94-24.56C30.46,54.33,31.88,32.48,60.18,33.27z"/>
<path class="st2" d="M15.1,27.78"/>
<polygon points="35.51,66.58 84.44,66.44 79.94,73.06 40.05,73.76 "/>
<polygon points="44.23,77.88 75.46,77.79 69.72,84.05 51.16,84.23 "/>
<g>
	<path class="st3" d="M41.8,49.94c0,0,6.22,6.18,12.06-0.03"/>
	<line class="st3" x1="43.82" y1="52.23" x2="42.99" y2="54.08"/>
	<line class="st3" x1="46.13" y1="52.89" x2="45.71" y2="55.16"/>
	<line class="st3" x1="48.85" y1="53.14" x2="48.86" y2="55.48"/>
	<line class="st3" x1="51" y1="52.35" x2="52.35" y2="54.79"/>
</g>
<g>
	<path class="st3" d="M64.66,50.56c0,0,6.22,6.18,12.06-0.03"/>
	<line class="st3" x1="66.68" y1="52.85" x2="65.84" y2="54.7"/>
	<line class="st3" x1="68.98" y1="53.51" x2="68.57" y2="55.78"/>
	<line class="st3" x1="71.71" y1="53.76" x2="71.71" y2="56.1"/>
	<line class="st3" x1="73.86" y1="52.97" x2="75.21" y2="55.41"/>
</g>
<ellipse transform="matrix(1 -2.862188e-03 2.862188e-03 1 -0.1802 0.1707)" cx="59.54" cy="63.04" rx="2.77" ry="2.06"/>
<circle cx="42.25" cy="61.59" r="3.48"/>
<circle cx="75.85" cy="61.97" r="3.48"/>
</svg>
