<?xml version="1.0" encoding="utf-8"?>
<!-- Generator: Adobe Illustrator 23.1.1, SVG Export Plug-In . SVG Version: 6.00 Build 0)  -->
<svg version="1.1" id="Calque_1" xmlns="http://www.w3.org/2000/svg" xmlns:xlink="http://www.w3.org/1999/xlink" x="0px" y="0px"
	 viewBox="0 0 1280 800" style="enable-background:new 0 0 1280 800;" xml:space="preserve">
<style type="text/css">
	.st0{fill:#548D9E;}
	.st1{fill:#FFFFFF;}
	.st2{fill:#FFFFFF;stroke:#000000;stroke-width:4;stroke-miterlimit:10;}
	.st3{fill:none;stroke:#000000;stroke-width:6;stroke-miterlimit:10;}
	.st4{fill:none;stroke:#1D1D1B;stroke-width:2.3989;stroke-linecap:round;stroke-linejoin:round;stroke-miterlimit:10;}
	.st5{fill:#1D1D1B;}
</style>
<g>
	<rect x="0.5" y="3.5" class="st0" width="1279" height="799"/>
	<path d="M1279,4v798H1V4H1279 M1280,3H0v800h1280V3L1280,3z"/>
</g>
<g>
	<path class="st1" d="M1278.27,233.69c-22.66-9.65-176.48-74.19-243.92-76.97c-2.99-0.12-6.13-0.19-9.33-0.19
		c-30.51,0-65.47,5.52-99.28,10.86c-31.04,4.9-60.35,9.53-83.8,9.53c-12.62,0-22.43-1.34-29.99-4.09
		c-21.13-7.68-48.8-25.46-78.09-44.28c-32.31-20.76-65.73-42.23-97.82-55.68c-9.16-3.84-19.93-5.79-32-5.79
		c-53.05,0-124.42,37.55-171.65,62.39c-10.72,5.64-19.97,10.51-28,14.44c-20.71,10.16-46.02,12.29-63.6,12.29
		c-27.83,0-47.29-4.97-51.52-7.65c0.73-0.26,2.01-0.59,4.25-0.87c33.33-4.17,166.4-50.93,180.44-56.11
		c1.47-0.54,3.49-1.28,3.14-3.22c-0.22-1.22-1.21-1.84-2.96-1.84c-5.55,0-31.48,4.5-64.3,10.19
		c-35.26,6.12-79.14,13.73-105.82,17.01c-4.36,0.54-8.63,0.81-12.69,0.81c-35.56,0-50.15-20.73-54.59-29.07
		c12.51,2.4,54.84,9.31,126.41,9.31c3.95,0,8-0.02,12.14-0.06c41.87-0.44,89.67-15.58,135.9-30.23
		c46.11-14.61,89.66-28.4,126.89-28.4c12.25,0,22.91,1.49,32.59,4.54c23.04,7.28,40.92,25.73,59.85,45.26
		c28.27,29.18,60.32,62.25,116.59,62.25c0.01,0,0.01,0,0.02,0c29.38,0,62.41-8.71,100.98-26.61c61.2-28.4,125.61-42.8,191.46-42.8
		c76.49,0,130.09,19.92,138.7,23.33V233.69z"/>
	<path d="M638.08,38.09c12.05,0,22.51,1.45,31.98,4.45c22.56,7.12,40.27,25.4,59.02,44.74c28.55,29.47,60.91,62.86,118.05,62.86
		c29.67,0,62.97-8.76,101.83-26.8c60.93-28.28,125.06-42.62,190.61-42.62c43.2,0,78.72,6.43,100.91,11.83
		c18.31,4.45,30.8,8.95,35.79,10.87v127.23c-13.38-5.67-49.2-20.59-90.25-35.58c-69.9-25.52-120.9-39.1-151.58-40.36
		c-3.02-0.12-6.18-0.19-9.41-0.19c-30.67,0-65.71,5.53-99.59,10.88c-30.96,4.89-60.19,9.51-83.49,9.51
		c-12.38,0-21.97-1.3-29.31-3.97c-20.92-7.61-48.5-25.32-77.69-44.08c-32.39-20.81-65.87-42.32-98.13-55.85
		c-9.4-3.94-20.43-5.94-32.78-5.94c-23.77,0-52.72,7.15-88.49,21.86c-30.25,12.44-60.1,28.14-84.09,40.76
		c-10.7,5.63-19.95,10.49-27.95,14.42c-20.37,9.99-45.35,12.09-62.72,12.09c-19.63,0-35.45-2.62-44.03-4.97
		c37.78-6.3,164.21-50.73,177.89-55.77c1.51-0.56,5.06-1.86,4.42-5.45c-0.19-1.05-1.04-3.49-4.93-3.49
		c-5.45,0-28.11,3.88-64.64,10.22c-35.24,6.11-79.09,13.72-105.72,16.99c-4.28,0.53-8.47,0.79-12.45,0.79
		c-17.93,0-32.49-5.22-43.3-15.51c-3.22-3.07-5.61-6.16-7.33-8.77c16.36,2.88,56.77,8.53,122.45,8.53c4,0,8.09-0.02,12.16-0.06
		c42.16-0.44,90.11-15.63,136.48-30.32C557.75,51.85,601.16,38.09,638.08,38.09 M638.08,34.09c-75.94,0-180.61,57.77-262.81,58.63
		c-4.13,0.04-8.17,0.06-12.12,0.06c-86.88,0-129.88-10.06-129.88-10.06s11.84,33.82,58.06,33.82c4.05,0,8.35-0.26,12.94-0.82
		c50.34-6.18,158.4-27.19,169.88-27.19c1.52,0,1.34,0.37-0.88,1.19c-19,7-148,52-180,56c-20.48,2.56,9.44,12.5,47.52,12.5
		c21.41,0,45.4-3.14,64.48-12.5c45.02-22.08,134.76-76.63,198.77-76.63c11.35,0,21.89,1.72,31.23,5.63c62,26,132,84,176,100
		c8.25,3,18.69,4.21,30.67,4.21c49.27,0,124.81-20.39,183.08-20.39c3.14,0,6.22,0.06,9.25,0.18c73,3,246,78,246,78v-136
		c0,0-56.1-23.99-140.7-23.99c-54.68,0-121.24,10.01-192.3,42.99c-40.75,18.91-73.31,26.42-100.14,26.42
		c-92.32,0-116.97-88.83-175.86-107.42C661.04,35.49,649.91,34.09,638.08,34.09L638.08,34.09z"/>
</g>
<path class="st2" d="M1078.49,475.3c0,0-2.14,10.7-19.27,10.17s-30.5-9.63-31.57-16.59c-1.07-6.96,7.49-21.41,7.49-21.41l52.45,5.35
	L1078.49,475.3z"/>
<path class="st2" d="M1076.35,472.63c-36.41,1-69.57-4.28-80.81-15.52c-11.24-11.24-21.41-43.35-21.41-43.35l166.43,10.17
	C1140.57,423.93,1134.68,471.02,1076.35,472.63z"/>
<path class="st2" d="M1066.18,443.19c-35.86-1.61-77.06-11.24-92.05-18.73c-14.98-7.49-29.97-12.31-29.97-33.18
	c0-20.87,6.42-42.28,6.42-42.28l196.4,12.84c0,0,62.08-13.38,31.04,36.93C1146.99,449.08,1066.18,443.19,1066.18,443.19z"/>
<path class="st2" d="M1051.73,398.24c-50.01-5.66-108.64-21.41-120.41-41.21c-11.77-19.8-9.63-58.87,0-58.87
	s88.84,33.71,134.86,30.5c46.02-3.21,79.59-2.68,117.12-30.5c0,0,26.3,50.84,0.08,67.96
	C1157.16,383.26,1108.46,404.66,1051.73,398.24z"/>
<path class="st2" d="M1076.35,344.19c-46.94,3.78-97.93-12.31-120.41-25.15s-37.46-20.34-31.04-44.42
	c6.42-24.08,26.22-34.79,58.87-33.71c32.64,1.07,115.06,5.35,142.89,5.35c27.83,0,57.8,12.31,58.87,31.57
	C1186.59,297.1,1202.64,334.02,1076.35,344.19z"/>
<path class="st2" d="M977.88,197.02c0,0-42.81,26.22-21.94,46.56s77.06,42.81,149.84,30.5c72.78-12.31,71.18-44.95,29.43-62.61
	C1093.47,193.81,1047.45,190.6,977.88,197.02z"/>
<path class="st2" d="M1135.21,211.47c0,0-30.5-65.82-76.53-64.75c-46.02,1.07-74.92,51.38-74.92,51.38
	S1041.03,256.42,1135.21,211.47z"/>
<ellipse cx="1073.94" cy="387.27" rx="23.81" ry="38.26"/>
<g>
	<g>
		<ellipse transform="matrix(0.8907 -0.4546 0.4546 0.8907 -125.3424 418.229)" cx="807.13" cy="469.79" rx="28.79" ry="42.99"/>
		<ellipse transform="matrix(0.4017 -0.9158 0.9158 0.4017 4.9908 1038.6143)" cx="797.37" cy="515.49" rx="22.5" ry="32.94"/>
	</g>
	<g>
		<path class="st3" d="M844.33,478.43c0,0,6.72-43.69-9.58-50.91"/>
		<g>
			<path d="M830.84,425.81L830.84,425.81C830.84,425.81,830.84,425.81,830.84,425.81 M830.84,419.81c-1.68,0-3.35,0.7-4.54,2.08
				c-2.16,2.51-1.89,6.29,0.62,8.45c1.13,0.98,2.53,1.46,3.91,1.46c1.68,0,3.35-0.7,4.54-2.08c2.16-2.51,1.89-6.29-0.62-8.45
				C833.62,420.29,832.23,419.81,830.84,419.81L830.84,419.81z"/>
		</g>
	</g>
	<g>
		<path class="st3" d="M867.61,461.21c0,0,6.72-43.69-9.58-50.91"/>
		<g>
			<path d="M854.12,408.59L854.12,408.59C854.12,408.59,854.12,408.59,854.12,408.59 M854.12,402.59c-1.68,0-3.35,0.7-4.54,2.08
				c-2.16,2.51-1.89,6.29,0.62,8.45c1.13,0.98,2.53,1.46,3.91,1.46c1.68,0,3.35-0.7,4.54-2.08c2.16-2.51,1.89-6.29-0.62-8.45
				C856.9,403.07,855.51,402.59,854.12,402.59L854.12,402.59z"/>
		</g>
	</g>
	<g>
		<path class="st1" d="M844.44,571.2c-29.71,0-50.4-9.82-52.29-12.35c-2.24-4.23,5.64-54.49,20.79-79.25
			c8.94-14.62,28.53-30.35,50.41-30.35c16.63,0,32.07,8.76,45.9,26.03c14.58,18.22,19.18,35.85,13.65,52.4
			c-6.94,20.78-28.66,35.01-45.91,39.43C866.42,569.83,855.47,571.2,844.44,571.2C844.44,571.2,844.44,571.2,844.44,571.2z"/>
		<path d="M863.34,451.25c15.99,0,30.91,8.51,44.34,25.28c14.13,17.66,18.61,34.65,13.32,50.52c-6.7,20.07-27.77,33.84-44.51,38.13
			c-10.4,2.67-21.19,4.02-32.05,4.02c-15.36,0-27.64-2.67-35.25-4.91c-8.83-2.6-13.86-5.35-15.24-6.47
			c-0.51-2.73,0.22-14.05,4.36-32c4.35-18.86,10.3-35.32,16.33-45.17C823.3,466.48,842.23,451.25,863.34,451.25 M863.34,447.25
			c-23.14,0-43.13,16.62-52.11,31.3c-14.88,24.33-24.13,76.88-20.68,81.5c2.59,3.47,24.35,13.16,53.89,13.16
			c10.24,0,21.41-1.16,33.05-4.15c29.99-7.7,73.76-44.5,33.32-95.02C895.11,454.42,878.54,447.25,863.34,447.25L863.34,447.25z"/>
	</g>
	<g>
		<path class="st4" d="M889.32,471.79c0,0-1.49,16.97-17.66,12.98"/>
		<line class="st4" x1="889.19" y1="477.77" x2="892.68" y2="479.94"/>
		<line class="st4" x1="886.64" y1="481.37" x2="890.02" y2="484.68"/>
		<line class="st4" x1="882.96" y1="484.72" x2="885.83" y2="488.62"/>
		<line class="st4" x1="878.85" y1="485.74" x2="879.87" y2="491.24"/>
	</g>
	<circle class="st5" cx="882.85" cy="515.2" r="9.1"/>
	<path class="st5" d="M931.99,483.02"/>
	<path class="st5" d="M919.48,486.86c0,0-0.39,15.04-18.3,13.54c0,0,5.94,8.44,15.42,6.07
		C926.09,504.11,919.48,486.86,919.48,486.86z"/>
	<polygon points="808.06,474.27 877.23,569.24 853.36,570.98 796.64,495.08 	"/>
	<polygon points="789.43,507.11 836.75,572.07 821.36,569.77 785.9,521.65 	"/>
</g>
</svg>
